<?xml version="1.0" encoding="UTF-8"?>
<svg width="864px" height="326px" viewBox="0 0 864 326" version="1.1" xmlns="http://www.w3.org/2000/svg" xmlns:xlink="http://www.w3.org/1999/xlink">
    <!-- Generator: Sketch 54.1 (76490) - https://sketchapp.com -->
    <title>@1xGroup 2</title>
    <desc>Created with Sketch.</desc>
    <defs>
        <radialGradient cx="50%" cy="78.1878039%" fx="50%" fy="78.1878039%" r="73.2571645%" gradientTransform="translate(0.500000,0.781878),scale(0.667630,1.000000),rotate(78.143427),translate(-0.500000,-0.781878)" id="radialGradient-1">
            <stop stop-color="#FFFFFF" offset="0%"></stop>
            <stop stop-color="#F6F6F6" offset="100%"></stop>
        </radialGradient>
        <radialGradient cx="50%" cy="78.1878039%" fx="50%" fy="78.1878039%" r="152.84386%" gradientTransform="translate(0.500000,0.781878),scale(1.000000,0.470085),rotate(86.230302),translate(-0.500000,-0.781878)" id="radialGradient-2">
            <stop stop-color="#FFFFFF" offset="0%"></stop>
            <stop stop-color="#F6F6F6" offset="100%"></stop>
        </radialGradient>
        <radialGradient cx="50%" cy="78.1878039%" fx="50%" fy="78.1878039%" r="82.7448083%" gradientTransform="translate(0.500000,0.781878),scale(0.243247,1.000000),rotate(60.048668),translate(-0.500000,-0.781878)" id="radialGradient-3">
            <stop stop-color="#FFFFFF" offset="0%"></stop>
            <stop stop-color="#F6F6F6" offset="100%"></stop>
        </radialGradient>
        <radialGradient cx="50%" cy="78.1878039%" fx="50%" fy="78.1878039%" r="73.6466171%" gradientTransform="translate(0.500000,0.781878),scale(0.596542,1.000000),rotate(76.777634),translate(-0.500000,-0.781878)" id="radialGradient-4">
            <stop stop-color="#FFFFFF" offset="0%"></stop>
            <stop stop-color="#F6F6F6" offset="100%"></stop>
        </radialGradient>
    </defs>
    <g id="Page-1" stroke="none" stroke-width="1" fill="none" fill-rule="evenodd">
        <g id="Artboard-logo-weaver-IT" transform="translate(-251.000000, -856.000000)" fill-rule="nonzero">
            <g id="Logo-negative" transform="translate(73.500000, 769.000000)">
                <g id="Group-2" transform="translate(178.000000, 87.000000)">
                    <path d="M0,206.859375 L15.390625,206.859375 L26.5625,301.546875 L39.84375,238.890625 L56.328125,238.890625 L69.765625,301.703125 L80.9375,206.859375 L96.328125,206.859375 L78.90625,323.5 L63.984375,323.5 L48.125,254.203125 L32.34375,323.5 L17.421875,323.5 L0,206.859375 Z M149.296875,325.765625 C135.807224,325.765625 125.221393,321.716186 117.539062,313.617188 C109.856732,305.518189 106.015625,294.463612 106.015625,280.453125 C106.015625,271.755165 107.539047,263.89066 110.585938,256.859375 C113.632828,249.82809 118.164032,244.242208 124.179688,240.101562 C130.195343,235.960917 137.630164,233.890625 146.484375,233.890625 C158.1511,233.890625 167.200489,237.627567 173.632812,245.101562 C180.065136,252.575558 183.28125,262.927017 183.28125,276.15625 L183.28125,283.1875 L121.015625,283.1875 L121.015625,283.65625 C121.015625,292.770879 123.411434,300.036431 128.203125,305.453125 C132.994816,310.869819 140.078078,313.578125 149.453125,313.578125 C154.869819,313.578125 160.117162,312.718759 165.195312,311 C170.273463,309.281241 175.182268,307.197929 179.921875,304.75 L179.921875,319.046875 C174.973934,321.078135 169.960963,322.705723 164.882812,323.929688 C159.804662,325.153652 154.609402,325.765625 149.296875,325.765625 Z M168.90625,271.9375 C168.90625,267.093726 168.177091,262.71877 166.71875,258.8125 C165.260409,254.90623 162.929704,251.807303 159.726562,249.515625 C156.523421,247.223947 152.291693,246.078125 147.03125,246.078125 C141.718723,246.078125 137.278664,247.236968 133.710938,249.554688 C130.143211,251.872407 127.356781,254.984355 125.351562,258.890625 C123.346344,262.796895 122.083336,267.145809 121.5625,271.9375 L168.90625,271.9375 Z M232.421875,325.765625 C223.984333,325.765625 217.018257,323.330754 211.523438,318.460938 C206.028618,313.591121 203.28125,306.599004 203.28125,297.484375 C203.28125,289.932254 205.104148,284.033875 208.75,279.789062 C212.395852,275.54425 217.161429,272.562509 223.046875,270.84375 C228.932321,269.124991 235.2083,268.265625 241.875,268.265625 L261.171875,268.265625 L261.171875,266 C261.171875,258.552046 259.283873,253.369806 255.507812,250.453125 C251.731752,247.536444 246.432326,246.078125 239.609375,246.078125 C234.296848,246.078125 229.088567,246.807284 223.984375,248.265625 C218.880183,249.723966 214.114605,251.755195 209.6875,254.359375 L209.6875,239.984375 C214.479191,238.213533 219.322892,236.755214 224.21875,235.609375 C229.114608,234.463536 234.114558,233.890625 239.21875,233.890625 C244.427109,233.890625 249.492163,234.606764 254.414062,236.039062 C259.335962,237.471361 263.593732,239.815088 267.1875,243.070312 C270.781268,246.325537 273.177077,250.687473 274.375,256.15625 C275.208337,260.010436 275.625,265.81767 275.625,273.578125 L275.625,291.46875 C275.625,296.364608 275.898435,301.78122 276.445312,307.71875 C276.99219,313.65628 278.255198,318.916644 280.234375,323.5 L265.78125,323.5 C264.895829,321.46874 264.192711,319.294282 263.671875,316.976562 C263.151039,314.658843 262.734377,312.406261 262.421875,310.21875 C259.348943,315.479193 255.091173,319.385404 249.648438,321.9375 C244.205702,324.489596 238.463572,325.765625 232.421875,325.765625 Z M235.9375,313.734375 C241.87503,313.734375 246.705711,312.276056 250.429688,309.359375 C254.153664,306.442694 256.874991,302.627628 258.59375,297.914062 C260.312509,293.200497 261.171875,288.135444 261.171875,282.71875 L261.171875,279.515625 L242.96875,279.515625 C238.90623,279.515625 234.934915,279.97135 231.054688,280.882812 C227.17446,281.794275 223.971367,283.526029 221.445312,286.078125 C218.919258,288.630221 217.65625,292.354142 217.65625,297.25 C217.65625,302.770861 219.348941,306.898424 222.734375,309.632812 C226.119809,312.367201 230.520806,313.734375 235.9375,313.734375 Z M296.796875,236 L311.71875,236 L337.109375,309.4375 L362.578125,236 L377.5,236 L346.40625,323.5 L327.890625,323.5 L296.796875,236 Z M438.28125,325.765625 C424.791599,325.765625 414.205768,321.716186 406.523438,313.617188 C398.841107,305.518189 395,294.463612 395,280.453125 C395,271.755165 396.523422,263.89066 399.570312,256.859375 C402.617203,249.82809 407.148407,244.242208 413.164062,240.101562 C419.179718,235.960917 426.614539,233.890625 435.46875,233.890625 C447.135475,233.890625 456.184864,237.627567 462.617188,245.101562 C469.049511,252.575558 472.265625,262.927017 472.265625,276.15625 L472.265625,283.1875 L410,283.1875 L410,283.65625 C410,292.770879 412.395809,300.036431 417.1875,305.453125 C421.979191,310.869819 429.062453,313.578125 438.4375,313.578125 C443.854194,313.578125 449.101537,312.718759 454.179688,311 C459.257838,309.281241 464.166643,307.197929 468.90625,304.75 L468.90625,319.046875 C463.958309,321.078135 458.945338,322.705723 453.867188,323.929688 C448.789037,325.153652 443.593777,325.765625 438.28125,325.765625 Z M457.890625,271.9375 C457.890625,267.093726 457.161466,262.71877 455.703125,258.8125 C454.244784,254.90623 451.914079,251.807303 448.710938,249.515625 C445.507796,247.223947 441.276068,246.078125 436.015625,246.078125 C430.703098,246.078125 426.263039,247.236968 422.695312,249.554688 C419.127586,251.872407 416.341156,254.984355 414.335938,258.890625 C412.330719,262.796895 411.067711,267.145809 410.546875,271.9375 L457.890625,271.9375 Z M505.234375,236 L518.28125,236 L519.6875,253.109375 C522.135429,246.911427 525.820288,242.158871 530.742188,238.851562 C535.664087,235.544254 541.562466,233.890625 548.4375,233.890625 C555.625036,233.890625 561.874973,235.713523 567.1875,239.359375 L567.1875,254.046875 C561.562472,249.463519 554.895872,247.171875 547.1875,247.171875 C538.333289,247.171875 531.536482,249.997368 526.796875,255.648438 C522.057268,261.299507 519.6875,269.411405 519.6875,279.984375 L519.6875,323.5 L505.234375,323.5 L505.234375,236 Z M594.0625,270.140625 L658.203125,270.140625 L658.203125,282.953125 L594.0625,282.953125 L594.0625,270.140625 Z M690,310.21875 L714.453125,310.21875 L714.453125,220.140625 L690,220.140625 L690,206.859375 L754.765625,206.859375 L754.765625,220.140625 L730.3125,220.140625 L730.3125,310.21875 L754.765625,310.21875 L754.765625,323.5 L690,323.5 L690,310.21875 Z M810.9375,220.140625 L774.296875,220.140625 L774.296875,206.859375 L863.28125,206.859375 L863.28125,220.140625 L826.796875,220.140625 L826.796875,323.5 L810.9375,323.5 L810.9375,220.140625 Z" id="Weaver-IT" fill="#FFFFFF"></path>
                    <g id="Logo-symbol" transform="translate(230.500000, 0.000000)">
                        <g id="Group">
                            <path d="M331.645187,119.922916 C315.218223,121.799451 296.669828,128.325146 276,139.5 C253.267337,151.790097 230.267337,169.12343 207,191.5 L182.5,143.5 C215.323735,141.601716 243.490402,135.268382 267,124.5 C289.057012,114.396963 304.503747,102.622974 313.340205,89.1780313 C316.740061,81.4197857 324.487101,76 333.5,76 C345.650264,76 355.5,85.8497355 355.5,98 C355.5,110.150264 345.650264,120 333.5,120 C332.875306,120 332.256693,119.973963 331.645187,119.922916 Z" id="Combined-Shape" fill="url(#radialGradient-1)"></path>
                            <path d="M167.938125,154.811495 C173.14792,139.300379 176.168545,125.863214 177,114.5 C178,100.833333 175.333333,90.1666667 169,82.5 L202,79.5 C197.46105,88.8974772 196.127717,98.7308105 198,109 C199.69624,118.30362 205.19086,133.268616 214.48386,153.894985 C217.338718,158.230172 219,163.421079 219,169 C219,184.187831 206.687831,196.5 191.5,196.5 C176.312169,196.5 164,184.187831 164,169 C164,163.808973 165.438301,158.953879 167.938125,154.811495 Z" id="Combined-Shape" fill="url(#radialGradient-2)"></path>
                            <path d="M176.685498,91.4339007 C154.183989,86.6136219 130.455489,84.9689884 105.5,86.5 C78.0112612,88.1864257 51.0112612,93.6864257 24.5,103 L19.5,64 C52.1013908,71.1226567 81.2680575,74.2893234 107,73.5 C130.426898,72.7813835 153.247114,68.7108237 175.460648,61.2883207 C178.192663,59.52402 181.447591,58.5 184.941691,58.5 C194.606674,58.5 202.441691,66.3350169 202.441691,76 C202.441691,85.6649831 194.606674,93.5 184.941691,93.5 C181.955978,93.5 179.144902,92.7522888 176.685498,91.4339007 Z" id="Combined-Shape" fill="url(#radialGradient-3)"></path>
                            <path d="M149.807398,6.92824555 C151.855903,2.82114002 156.098495,3.55271368e-15 161,3.55271368e-15 C167.903559,3.55271368e-15 173.5,5.59644063 173.5,12.5 C173.5,19.3453623 167.997518,24.905551 161.17431,24.9988094 C139.68453,29.7269501 119.126426,37.5606803 99.5,48.5 C81.2377128,58.6789798 60.4209866,73.8323933 37.0498215,93.9602405 C33.5310309,99.6835306 27.2112076,103.5 20,103.5 C8.954305,103.5 0,94.545695 0,83.5 C0,72.6740231 8.60161457,63.857061 19.3433822,63.5105751 C46.7928421,57.3553199 72.6783814,49.3517949 97,39.5 C122.286285,29.2574541 139.888751,18.4002026 149.807398,6.92824555 Z" id="Combined-Shape" fill="url(#radialGradient-4)"></path>
                        </g>
                    </g>
                </g>
            </g>
        </g>
    </g>
</svg>