<?xml version="1.0" encoding="UTF-8"?>
<svg width="1172px" height="499px" viewBox="0 0 1172 499" version="1.1" xmlns="http://www.w3.org/2000/svg" xmlns:xlink="http://www.w3.org/1999/xlink">
    <!-- Generator: Sketch 54.1 (76490) - https://sketchapp.com -->
    <title>Logo positive-svg</title>
    <desc>Created with Sketch.</desc>
    <defs>
        <radialGradient cx="50%" cy="78.1878039%" fx="50%" fy="78.1878039%" r="73.2571645%" gradientTransform="translate(0.500000,0.781878),scale(0.667630,1.000000),rotate(78.143427),translate(-0.500000,-0.781878)" id="radialGradient-1">
            <stop stop-color="#0FA3B0" offset="0%"></stop>
            <stop stop-color="#233C52" offset="100%"></stop>
        </radialGradient>
        <radialGradient cx="50%" cy="78.1878039%" fx="50%" fy="78.1878039%" r="152.84386%" gradientTransform="translate(0.500000,0.781878),scale(1.000000,0.470085),rotate(86.230302),translate(-0.500000,-0.781878)" id="radialGradient-2">
            <stop stop-color="#0FA3B0" offset="0%"></stop>
            <stop stop-color="#233C52" offset="100%"></stop>
        </radialGradient>
        <radialGradient cx="31.8535752%" cy="50%" fx="31.8535752%" fy="50%" r="225.204482%" gradientTransform="translate(0.318536,0.500000),scale(0.243247,1.000000),rotate(60.471243),translate(-0.318536,-0.500000)" id="radialGradient-3">
            <stop stop-color="#0FA3B0" offset="0%"></stop>
            <stop stop-color="#233C52" offset="100%"></stop>
        </radialGradient>
        <radialGradient cx="13.2623616%" cy="81.391515%" fx="13.2623616%" fy="81.391515%" r="85.338574%" gradientTransform="translate(0.132624,0.813915),scale(0.596542,1.000000),rotate(78.643763),translate(-0.132624,-0.813915)" id="radialGradient-4">
            <stop stop-color="#0FA3B0" offset="0%"></stop>
            <stop stop-color="#233C52" offset="100%"></stop>
        </radialGradient>
    </defs>
    <g id="Page-1" stroke="none" stroke-width="1" fill="none" fill-rule="evenodd">
        <g id="Artboard-logo-weaver-IT" transform="translate(-74.000000, -216.000000)">
            <g id="Logo-positive" transform="translate(73.500000, 215.500000)">
                <rect id="Rectangle" stroke="#E6E6E6" fill="#FFFFFF" x="1" y="1" width="1171" height="498"></rect>
                <path d="M178,293.859375 L193.390625,293.859375 L204.5625,388.546875 L217.84375,325.890625 L234.328125,325.890625 L247.765625,388.703125 L258.9375,293.859375 L274.328125,293.859375 L256.90625,410.5 L241.984375,410.5 L226.125,341.203125 L210.34375,410.5 L195.421875,410.5 L178,293.859375 Z M327.296875,412.765625 C313.807224,412.765625 303.221393,408.716186 295.539062,400.617188 C287.856732,392.518189 284.015625,381.463612 284.015625,367.453125 C284.015625,358.755165 285.539047,350.89066 288.585938,343.859375 C291.632828,336.82809 296.164032,331.242208 302.179688,327.101562 C308.195343,322.960917 315.630164,320.890625 324.484375,320.890625 C336.1511,320.890625 345.200489,324.627567 351.632812,332.101562 C358.065136,339.575558 361.28125,349.927017 361.28125,363.15625 L361.28125,370.1875 L299.015625,370.1875 L299.015625,370.65625 C299.015625,379.770879 301.411434,387.036431 306.203125,392.453125 C310.994816,397.869819 318.078078,400.578125 327.453125,400.578125 C332.869819,400.578125 338.117162,399.718759 343.195312,398 C348.273463,396.281241 353.182268,394.197929 357.921875,391.75 L357.921875,406.046875 C352.973934,408.078135 347.960963,409.705723 342.882812,410.929688 C337.804662,412.153652 332.609402,412.765625 327.296875,412.765625 Z M346.90625,358.9375 C346.90625,354.093726 346.177091,349.71877 344.71875,345.8125 C343.260409,341.90623 340.929704,338.807303 337.726562,336.515625 C334.523421,334.223947 330.291693,333.078125 325.03125,333.078125 C319.718723,333.078125 315.278664,334.236968 311.710938,336.554688 C308.143211,338.872407 305.356781,341.984355 303.351562,345.890625 C301.346344,349.796895 300.083336,354.145809 299.5625,358.9375 L346.90625,358.9375 Z M410.421875,412.765625 C401.984333,412.765625 395.018257,410.330754 389.523438,405.460938 C384.028618,400.591121 381.28125,393.599004 381.28125,384.484375 C381.28125,376.932254 383.104148,371.033875 386.75,366.789062 C390.395852,362.54425 395.161429,359.562509 401.046875,357.84375 C406.932321,356.124991 413.2083,355.265625 419.875,355.265625 L439.171875,355.265625 L439.171875,353 C439.171875,345.552046 437.283873,340.369806 433.507812,337.453125 C429.731752,334.536444 424.432326,333.078125 417.609375,333.078125 C412.296848,333.078125 407.088567,333.807284 401.984375,335.265625 C396.880183,336.723966 392.114605,338.755195 387.6875,341.359375 L387.6875,326.984375 C392.479191,325.213533 397.322892,323.755214 402.21875,322.609375 C407.114608,321.463536 412.114558,320.890625 417.21875,320.890625 C422.427109,320.890625 427.492163,321.606764 432.414062,323.039062 C437.335962,324.471361 441.593732,326.815088 445.1875,330.070312 C448.781268,333.325537 451.177077,337.687473 452.375,343.15625 C453.208337,347.010436 453.625,352.81767 453.625,360.578125 L453.625,378.46875 C453.625,383.364608 453.898435,388.78122 454.445312,394.71875 C454.99219,400.65628 456.255198,405.916644 458.234375,410.5 L443.78125,410.5 C442.895829,408.46874 442.192711,406.294282 441.671875,403.976562 C441.151039,401.658843 440.734377,399.406261 440.421875,397.21875 C437.348943,402.479193 433.091173,406.385404 427.648438,408.9375 C422.205702,411.489596 416.463572,412.765625 410.421875,412.765625 Z M413.9375,400.734375 C419.87503,400.734375 424.705711,399.276056 428.429688,396.359375 C432.153664,393.442694 434.874991,389.627628 436.59375,384.914062 C438.312509,380.200497 439.171875,375.135444 439.171875,369.71875 L439.171875,366.515625 L420.96875,366.515625 C416.90623,366.515625 412.934915,366.97135 409.054688,367.882812 C405.17446,368.794275 401.971367,370.526029 399.445312,373.078125 C396.919258,375.630221 395.65625,379.354142 395.65625,384.25 C395.65625,389.770861 397.348941,393.898424 400.734375,396.632812 C404.119809,399.367201 408.520806,400.734375 413.9375,400.734375 Z M474.796875,323 L489.71875,323 L515.109375,396.4375 L540.578125,323 L555.5,323 L524.40625,410.5 L505.890625,410.5 L474.796875,323 Z M616.28125,412.765625 C602.791599,412.765625 592.205768,408.716186 584.523438,400.617188 C576.841107,392.518189 573,381.463612 573,367.453125 C573,358.755165 574.523422,350.89066 577.570312,343.859375 C580.617203,336.82809 585.148407,331.242208 591.164062,327.101562 C597.179718,322.960917 604.614539,320.890625 613.46875,320.890625 C625.135475,320.890625 634.184864,324.627567 640.617188,332.101562 C647.049511,339.575558 650.265625,349.927017 650.265625,363.15625 L650.265625,370.1875 L588,370.1875 L588,370.65625 C588,379.770879 590.395809,387.036431 595.1875,392.453125 C599.979191,397.869819 607.062453,400.578125 616.4375,400.578125 C621.854194,400.578125 627.101537,399.718759 632.179688,398 C637.257838,396.281241 642.166643,394.197929 646.90625,391.75 L646.90625,406.046875 C641.958309,408.078135 636.945338,409.705723 631.867188,410.929688 C626.789037,412.153652 621.593777,412.765625 616.28125,412.765625 Z M635.890625,358.9375 C635.890625,354.093726 635.161466,349.71877 633.703125,345.8125 C632.244784,341.90623 629.914079,338.807303 626.710938,336.515625 C623.507796,334.223947 619.276068,333.078125 614.015625,333.078125 C608.703098,333.078125 604.263039,334.236968 600.695312,336.554688 C597.127586,338.872407 594.341156,341.984355 592.335938,345.890625 C590.330719,349.796895 589.067711,354.145809 588.546875,358.9375 L635.890625,358.9375 Z M683.234375,323 L696.28125,323 L697.6875,340.109375 C700.135429,333.911427 703.820288,329.158871 708.742188,325.851562 C713.664087,322.544254 719.562466,320.890625 726.4375,320.890625 C733.625036,320.890625 739.874973,322.713523 745.1875,326.359375 L745.1875,341.046875 C739.562472,336.463519 732.895872,334.171875 725.1875,334.171875 C716.333289,334.171875 709.536482,336.997368 704.796875,342.648438 C700.057268,348.299507 697.6875,356.411405 697.6875,366.984375 L697.6875,410.5 L683.234375,410.5 L683.234375,323 Z M772.0625,357.140625 L836.203125,357.140625 L836.203125,369.953125 L772.0625,369.953125 L772.0625,357.140625 Z M868,397.21875 L892.453125,397.21875 L892.453125,307.140625 L868,307.140625 L868,293.859375 L932.765625,293.859375 L932.765625,307.140625 L908.3125,307.140625 L908.3125,397.21875 L932.765625,397.21875 L932.765625,410.5 L868,410.5 L868,397.21875 Z M988.9375,307.140625 L952.296875,307.140625 L952.296875,293.859375 L1041.28125,293.859375 L1041.28125,307.140625 L1004.79688,307.140625 L1004.79688,410.5 L988.9375,410.5 L988.9375,307.140625 Z" id="Weaver-IT" fill="#233C52" fill-rule="nonzero"></path>
                <g id="Logo-symbol" transform="translate(408.500000, 87.000000)" fill-rule="nonzero">
                    <g id="Group">
                        <path d="M331.645187,119.922916 C315.218223,121.799451 296.669828,128.325146 276,139.5 C253.267337,151.790097 230.267337,169.12343 207,191.5 L182.5,143.5 C215.323735,141.601716 243.490402,135.268382 267,124.5 C289.057012,114.396963 304.503747,102.622974 313.340205,89.1780313 C316.740061,81.4197857 324.487101,76 333.5,76 C345.650264,76 355.5,85.8497355 355.5,98 C355.5,110.150264 345.650264,120 333.5,120 C332.875306,120 332.256693,119.973963 331.645187,119.922916 Z" id="Combined-Shape" fill="url(#radialGradient-1)"></path>
                        <path d="M167.938125,154.811495 C173.14792,139.300379 176.168545,125.863214 177,114.5 C178,100.833333 175.333333,90.1666667 169,82.5 L202,79.5 C197.46105,88.8974772 196.127717,98.7308105 198,109 C199.69624,118.30362 205.19086,133.268616 214.48386,153.894985 C217.338718,158.230172 219,163.421079 219,169 C219,184.187831 206.687831,196.5 191.5,196.5 C176.312169,196.5 164,184.187831 164,169 C164,163.808973 165.438301,158.953879 167.938125,154.811495 Z" id="Combined-Shape" fill="url(#radialGradient-2)"></path>
                        <path d="M176.685498,91.4339007 C154.183989,86.6136219 130.455489,84.9689884 105.5,86.5 C78.0112612,88.1864257 51.0112612,93.6864257 24.5,103 L19.5,64 C52.1013908,71.1226567 81.2680575,74.2893234 107,73.5 C130.426898,72.7813835 153.247114,68.7108237 175.460648,61.2883207 C178.192663,59.52402 181.447591,58.5 184.941691,58.5 C194.606674,58.5 202.441691,66.3350169 202.441691,76 C202.441691,85.6649831 194.606674,93.5 184.941691,93.5 C181.955978,93.5 179.144902,92.7522888 176.685498,91.4339007 Z" id="Combined-Shape" fill="url(#radialGradient-3)"></path>
                        <path d="M149.807398,6.92824555 C151.855903,2.82114002 156.098495,3.55271368e-15 161,3.55271368e-15 C167.903559,3.55271368e-15 173.5,5.59644063 173.5,12.5 C173.5,19.3453623 167.997518,24.905551 161.17431,24.9988094 C139.68453,29.7269501 119.126426,37.5606803 99.5,48.5 C81.2377128,58.6789798 60.4209866,73.8323933 37.0498215,93.9602405 C33.5310309,99.6835306 27.2112076,103.5 20,103.5 C8.954305,103.5 0,94.545695 0,83.5 C0,72.6740231 8.60161457,63.857061 19.3433822,63.5105751 C46.7928421,57.3553199 72.6783814,49.3517949 97,39.5 C122.286285,29.2574541 139.888751,18.4002026 149.807398,6.92824555 Z" id="Combined-Shape" fill="url(#radialGradient-4)"></path>
                    </g>
                </g>
            </g>
        </g>
    </g>
</svg>