<?xml version="1.0" encoding="UTF-8"?>
<svg width="555px" height="307px" viewBox="0 0 555 307" version="1.1" xmlns="http://www.w3.org/2000/svg" xmlns:xlink="http://www.w3.org/1999/xlink">
    <!-- Generator: Sketch 54.1 (76490) - https://sketchapp.com -->
    <title>Logo symbol-svg</title>
    <desc>Created with Sketch.</desc>
    <defs>
        <radialGradient cx="50%" cy="78.1878039%" fx="50%" fy="78.1878039%" r="73.2571645%" gradientTransform="translate(0.500000,0.781878),scale(0.667630,1.000000),rotate(78.143427),translate(-0.500000,-0.781878)" id="radialGradient-1">
            <stop stop-color="#FFFFFF" offset="0%"></stop>
            <stop stop-color="#F6F6F6" offset="100%"></stop>
        </radialGradient>
        <radialGradient cx="50%" cy="78.1878039%" fx="50%" fy="78.1878039%" r="152.84386%" gradientTransform="translate(0.500000,0.781878),scale(1.000000,0.470085),rotate(86.230302),translate(-0.500000,-0.781878)" id="radialGradient-2">
            <stop stop-color="#FFFFFF" offset="0%"></stop>
            <stop stop-color="#F6F6F6" offset="100%"></stop>
        </radialGradient>
        <radialGradient cx="50%" cy="78.1878039%" fx="50%" fy="78.1878039%" r="82.7448083%" gradientTransform="translate(0.500000,0.781878),scale(0.243247,1.000000),rotate(60.048668),translate(-0.500000,-0.781878)" id="radialGradient-3">
            <stop stop-color="#FFFFFF" offset="0%"></stop>
            <stop stop-color="#F6F6F6" offset="100%"></stop>
        </radialGradient>
        <radialGradient cx="50%" cy="78.1878039%" fx="50%" fy="78.1878039%" r="73.6466171%" gradientTransform="translate(0.500000,0.781878),scale(0.596542,1.000000),rotate(76.777634),translate(-0.500000,-0.781878)" id="radialGradient-4">
            <stop stop-color="#FFFFFF" offset="0%"></stop>
            <stop stop-color="#F6F6F6" offset="100%"></stop>
        </radialGradient>
    </defs>
    <g id="Page-1" stroke="none" stroke-width="1" fill="none" fill-rule="evenodd">
        <g id="Artboard-logo-weaver-IT" transform="translate(-1350.000000, -883.000000)" fill-rule="nonzero">
            <g id="Symbol-negative" transform="translate(1284.000000, 769.000000)">
                <g id="Logo-symbol" transform="translate(66.500000, 114.000000)">
                    <g id="Group">
                        <path d="M516.827779,186.88495 C491.228399,189.809297 462.323031,199.978781 430.111675,217.393401 C394.685647,236.545989 358.843007,263.557833 322.583756,298.428934 L284.403553,223.626904 C335.555262,220.668664 379.449509,210.798951 416.086294,194.017766 C450.459404,178.27344 474.53122,159.925142 488.301741,138.972871 C493.599993,126.88261 505.672792,118.436548 519.718274,118.436548 C538.65295,118.436548 554.002538,133.786136 554.002538,152.720812 C554.002538,171.655488 538.65295,187.005076 519.718274,187.005076 C518.744766,187.005076 517.780735,186.964501 516.827779,186.88495 Z" id="Combined-Shape" fill="url(#radialGradient-1)"></path>
                        <path d="M261.710682,241.254462 C269.8295,217.082317 274.536769,196.142166 275.832487,178.43401 C277.390863,157.13621 273.235195,140.513536 263.365482,128.56599 L314.791878,123.890863 C307.718489,138.535662 305.640655,153.859689 308.558376,169.862944 C311.201755,184.36148 319.764437,207.682563 334.246422,239.826196 C338.695362,246.582044 341.284264,254.671428 341.284264,263.365482 C341.284264,287.033827 322.097279,306.220812 298.428934,306.220812 C274.760589,306.220812 255.573604,287.033827 255.573604,263.365482 C255.573604,255.275912 257.815017,247.709852 261.710682,241.254462 Z" id="Combined-Shape" fill="url(#radialGradient-2)"></path>
                        <path d="M275.342375,142.488363 C240.276571,134.976558 203.298656,132.413601 164.408629,134.799492 C121.570849,137.427577 79.4947065,145.998643 38.180203,160.51269 L30.3883249,99.7360406 C81.193538,110.835815 126.646161,115.770671 166.746193,114.540609 C203.2541,113.420735 238.816569,107.077274 273.433598,95.5102257 C277.691105,92.7607824 282.763504,91.1649746 288.208625,91.1649746 C303.270299,91.1649746 315.480199,103.374874 315.480199,118.436548 C315.480199,133.498222 303.270299,145.708122 288.208625,145.708122 C283.555762,145.708122 279.17505,144.542907 275.342375,142.488363 Z" id="Combined-Shape" fill="url(#radialGradient-3)"></path>
                        <path d="M233.456198,10.7968091 C236.648539,4.39639587 243.260091,3.55271368e-15 250.898477,3.55271368e-15 C261.656816,3.55271368e-15 270.378173,8.72135671 270.378173,19.4796954 C270.378173,30.1473412 261.803238,38.8122039 251.170118,38.9575355 C217.680968,46.3257548 185.64372,58.533649 155.058376,75.5812183 C126.598872,91.4438923 94.1585933,115.058603 57.7375391,146.425349 C52.2539416,155.344385 42.4052828,161.291878 31.1675127,161.291878 C13.9541707,161.291878 0,147.337707 0,130.124365 C0,113.253427 13.4045466,99.513288 30.1442555,98.9733328 C72.920825,89.3811331 113.260219,76.9086347 151.162437,61.5558376 C190.567967,45.5941035 217.999221,28.6744274 233.456198,10.7968091 Z" id="Combined-Shape" fill="url(#radialGradient-4)"></path>
                    </g>
                </g>
            </g>
        </g>
    </g>
</svg>